# xmcd CD database file
#
# Track frame offsets:
#	150
#	19203
#	38341
#	56547
#	72144
#	89184
#	108432
#	123028
#	141150
#	152050
#	178015
#	192640
#	212875
#
# Disc length: 3159 seconds
#
# Revision: 0
# Processed by: cddbd v1.5.2PL0 Copyright (c) Steve Scherf et al.
# Submitted via: CDex 1.51
#
DISCID=b80c550d
DTITLE=Dr. Mojo - Package for you!
DYEAR=2007
DGENRE=Blues
TTITLE0=Malted Milk
TTITLE1=Tupelo Honey
TTITLE2=I heard the angels singing
TTITLE3=It hurts me too
TTITLE4=Hesitation blues
TTITLE5=Big boss man
TTITLE6=Travelin' blues
TTITLE7=Walk a mile in my shoes
TTITLE8=Woodhouse blues
TTITLE9=Willing
TTITLE10=Bye bye blues
TTITLE11=I can't be satisfied
TTITLE12=Little queen of spades
EXTD=YEAR: 2007
EXTT0=
EXTT1=
EXTT2=
EXTT3=
EXTT4=
EXTT5=
EXTT6=
EXTT7=
EXTT8=
EXTT9=
EXTT10=
EXTT11=
EXTT12=
PLAYORDER=
